<?xml version="1.0" standalone="no"?>
<!DOCTYPE svg PUBLIC "-//W3C//DTD SVG 20010904//EN"
 "http://www.w3.org/TR/2001/REC-SVG-20010904/DTD/svg10.dtd">
<svg version="1.0" xmlns="http://www.w3.org/2000/svg"
 width="300.000000pt" height="300.000000pt" viewBox="0 0 300.000000 300.000000"
 preserveAspectRatio="xMidYMid meet">
<metadata>
Created by potrace 1.10, written by Peter Selinger 2001-2011
</metadata>
<g transform="translate(0.000000,300.000000) scale(0.100000,-0.100000)"
fill="#000000" stroke="none">
<path d="M191 2088 c-19 -12 -44 -36 -55 -51 -28 -38 -28 -118 0 -171 l20 -39
-24 -81 c-28 -98 -40 -265 -23 -318 27 -80 409 -388 483 -388 45 0 310 194
427 313 43 44 55 64 62 103 12 63 -5 217 -34 304 l-22 66 23 39 c30 52 27 136
-6 182 -51 71 -156 82 -237 25 -38 -27 -47 -29 -82 -21 -51 11 -230 11 -271 0
-29 -9 -38 -6 -77 21 -61 43 -136 50 -184 16z m165 -71 l32 -35 53 14 c72 19
232 18 297 -1 l51 -16 33 37 c27 28 43 37 79 41 38 4 50 1 77 -22 51 -43 52
-117 1 -171 l-20 -22 20 -39 c26 -53 51 -188 51 -281 l0 -76 -82 -81 c-95 -93
-241 -208 -311 -245 l-47 -25 -53 27 c-62 33 -204 145 -307 244 l-75 72 1 99
c1 102 23 216 51 269 16 31 16 33 -10 64 -21 25 -27 42 -27 82 0 42 5 54 30
80 28 28 36 30 78 25 37 -4 53 -12 78 -40z"/>
<path d="M391 1738 c-39 -21 -37 -37 7 -54 l39 -16 -20 -61 c-29 -91 -29 -201
2 -250 31 -50 103 -104 150 -112 70 -12 174 55 207 132 20 47 17 141 -7 218
-21 69 -18 84 17 85 6 0 17 7 24 15 29 35 -51 70 -95 41 -31 -21 -31 -37 1
-133 21 -61 25 -92 22 -145 -5 -89 -20 -106 -78 -89 -50 15 -53 41 -10 78 33
27 40 67 14 77 -9 3 -44 6 -78 6 -91 0 -111 -29 -55 -81 39 -36 37 -69 -6 -81
-45 -12 -63 -1 -76 45 -14 52 -5 119 28 220 23 67 24 80 12 92 -21 21 -70 27
-98 13z m69 -33 c19 -23 1 -39 -21 -19 -10 9 -16 21 -13 25 8 13 20 11 34 -6z
m305 6 c3 -5 -5 -17 -17 -25 -17 -12 -24 -13 -29 -4 -9 14 8 38 27 38 7 0 15
-4 19 -9z m-121 -210 c3 -5 -5 -24 -18 -43 -13 -19 -25 -41 -28 -48 -2 -7 -16
6 -32 30 -15 23 -25 48 -22 56 6 16 91 20 100 5z m-9 -170 c40 -18 40 -18 16
-30 -31 -17 -82 -16 -117 2 l-28 15 32 7 c17 3 34 11 37 16 8 12 12 11 60 -10z"/>
<path d="M1385 1972 c-40 -26 -61 -51 -80 -95 -31 -75 -6 -162 60 -213 53 -40
150 -46 214 -12 l43 23 2 78 1 77 -77 0 -78 0 0 -30 c0 -29 2 -30 45 -30 43 0
45 -1 45 -30 0 -26 -5 -30 -41 -40 -127 -35 -209 111 -113 201 32 30 111 34
140 7 18 -15 20 -15 42 2 28 23 27 31 -6 55 -40 29 -156 33 -197 7z"/>
<path d="M1770 1968 c-57 -39 -74 -71 -78 -146 -2 -56 1 -74 20 -107 64 -109
237 -114 308 -8 20 30 25 49 25 103 0 118 -63 180 -183 180 -45 0 -67 -5 -92
-22z m156 -57 c60 -36 69 -133 19 -184 -31 -30 -66 -38 -112 -25 -49 13 -75
59 -70 121 8 91 88 134 163 88z"/>
<path d="M2201 1973 c-67 -33 -107 -139 -81 -217 26 -80 90 -126 176 -126 87
0 153 53 172 137 19 81 -10 154 -78 201 -41 27 -137 30 -189 5z m172 -83 c35
-39 38 -113 7 -153 -23 -29 -77 -48 -112 -40 -35 9 -77 53 -84 89 -22 117 111
191 189 104z"/>
<path d="M2540 1813 l0 -179 96 3 c100 3 133 14 171 55 69 74 51 217 -35 270
-30 18 -55 23 -134 26 l-98 4 0 -179z m163 106 c64 -17 94 -95 63 -161 -20
-42 -51 -58 -111 -58 l-45 0 0 115 0 115 28 0 c15 0 44 -5 65 -11z"/>
<path d="M1330 1539 c0 -2 -1 -84 -3 -182 l-2 -177 93 0 c105 0 152 15 171 56
18 41 13 74 -17 102 -27 26 -27 28 -10 44 39 39 31 103 -18 135 -19 12 -53 18
-120 21 -52 3 -94 3 -94 1z m168 -75 c24 -17 29 -43 10 -62 -7 -7 -35 -12 -62
-12 l-51 0 -1 45 -1 45 41 0 c23 0 52 -7 64 -16z m16 -150 c19 -18 20 -28 6
-55 -9 -15 -22 -19 -68 -19 l-57 0 0 45 0 45 52 0 c34 0 57 -5 67 -16z"/>
<path d="M1675 1360 l0 -180 121 0 121 0 0 30 0 30 -89 0 -88 0 0 46 0 46 75
-4 75 -3 0 32 0 33 -75 0 -75 0 0 43 0 42 85 -4 85 -3 0 36 0 36 -117 0 -118
0 0 -180z"/>
<path d="M2370 1360 l0 -180 35 0 35 0 0 65 c0 59 2 65 20 65 15 0 33 -19 61
-64 37 -59 43 -64 79 -68 22 -2 40 -2 40 0 0 2 -20 33 -45 69 -26 36 -45 66
-43 68 2 1 14 8 26 14 32 17 54 73 46 116 -12 66 -70 94 -191 95 l-63 0 0
-180z m177 97 c3 -4 6 -20 6 -37 0 -39 -4 -42 -63 -50 l-50 -6 0 56 0 56 50
-6 c27 -3 53 -9 57 -13z"/>
<path d="M2029 1363 c-35 -92 -65 -171 -67 -175 -2 -4 14 -8 36 -8 36 0 40 2
50 38 l11 38 76 0 76 0 11 -38 c10 -36 14 -38 50 -38 22 0 38 4 36 8 -1 5 -32
84 -68 175 l-65 167 -41 0 -41 0 -64 -167z m134 24 l25 -67 -53 0 -53 0 27 69
c14 38 27 68 28 67 1 0 13 -32 26 -69z"/>
<path d="M1342 1024 c-29 -20 -30 -74 -2 -99 32 -29 105 -17 86 14 -5 7 -13 7
-26 -1 -14 -9 -22 -9 -34 1 -37 31 -5 92 36 70 27 -14 46 1 23 18 -25 17 -55
17 -83 -3z"/>
<path d="M1501 1014 c-26 -33 -26 -55 -3 -85 37 -45 122 -16 122 41 0 31 -39
70 -70 70 -19 0 -36 -9 -49 -26z m74 -10 c33 -33 -4 -92 -42 -68 -10 6 -19 20
-21 31 -3 20 21 53 38 53 5 0 16 -7 25 -16z"/>
<path d="M1676 973 c2 -49 6 -68 15 -68 10 0 13 12 11 43 -2 23 -1 42 2 42 3
0 19 -20 36 -45 17 -25 35 -45 40 -45 6 0 10 32 10 70 0 57 -3 70 -16 70 -13
0 -15 -8 -9 -42 l6 -43 -30 35 c-17 19 -31 38 -31 43 0 4 -8 7 -17 7 -16 0
-18 -9 -17 -67z"/>
<path d="M1862 1028 c-23 -23 -14 -48 23 -64 19 -8 35 -19 35 -24 0 -14 -37
-13 -46 1 -4 8 -9 8 -17 0 -16 -16 5 -33 38 -33 61 0 72 64 14 77 -37 8 -32
31 6 27 19 -2 26 1 23 10 -6 17 -60 22 -76 6z"/>
<path d="M2010 985 c0 -47 3 -57 25 -71 23 -15 27 -15 50 0 20 13 25 25 25 55
0 22 3 46 6 55 4 11 1 16 -10 16 -12 0 -16 -10 -16 -39 0 -52 -8 -71 -30 -71
-22 0 -30 19 -30 71 0 21 -4 39 -10 39 -5 0 -10 -25 -10 -55z"/>
<path d="M2180 975 l0 -65 30 -1 c17 -1 35 -2 42 -3 6 -1 13 5 16 12 2 8 -7
12 -27 12 -31 0 -31 0 -31 55 0 42 -3 55 -15 55 -12 0 -15 -14 -15 -65z"/>
<path d="M2300 1024 c0 -11 6 -14 20 -9 19 6 20 2 20 -55 0 -45 3 -61 13 -57
7 2 12 24 12 58 1 45 3 54 18 51 10 -2 17 3 17 13 0 11 -12 15 -50 15 -39 0
-50 -4 -50 -16z"/>
<path d="M2460 969 c0 -52 3 -70 13 -67 7 3 13 29 15 71 2 55 0 67 -13 67 -12
0 -15 -14 -15 -71z"/>
<path d="M2550 970 c0 -56 3 -70 15 -70 11 0 15 12 15 48 l0 47 30 -45 c42
-64 54 -59 58 23 2 54 0 67 -12 67 -10 0 -16 -13 -18 -42 l-3 -42 -28 42 c-42
64 -57 56 -57 -28z"/>
<path d="M2747 1022 c-17 -19 -22 -68 -9 -88 30 -45 104 -33 110 19 3 24 0 27
-27 27 -17 0 -31 -4 -31 -10 0 -5 7 -10 16 -10 23 0 11 -24 -14 -28 -32 -5
-48 32 -27 64 18 27 19 28 45 14 23 -12 40 7 19 21 -23 15 -65 10 -82 -9z"/>
</g>
</svg>
